#!OML:ASF H:\Pregnant\Project 1\Capture day 1\Session 1\femalepreg.ASF
:FULLY-SPECIFIED
:DEGREES
1617
root 9.83261 15.8874 5.81198 24.3799 -6.17344 -3.02476
lowerback -17.7413 2.51205 3.66903
upperback -11.5638 2.75227 -2.3984
thorax -2.20986 1.09116 -4.1817
lowerneck -28.4197 4.98915 9.20034
upperneck 19.167 3.81117 -2.79033
head 11.0975 2.06338 -1.841
rclavicle 1.67973e-014 -2.62396e-014
rhumerus 55.876 4.84871 -88.8322
rradius 82.5566
rwrist -40.8276
rhand -26.6024 -41.5505
rfingers 7.12502
rthumb -0.036076 -71.5302
lclavicle 1.67973e-014 -2.62396e-014
lhumerus 62.9504 -18.4446 72.6673
lradius 75.9478
lwrist 56.0079
lhand -36.9688 -0.865649
lfingers 7.12502
lthumb -10.0445 28.8746
rfemur -43.3686 15.3753 18.0988
rtibia 37.0197
rfoot -11.475 -9.56835
rtoes -8.72418
lfemur -23.5756 -12.8486 -16.1036
ltibia 18.6128
lfoot -13.3986 7.22989
ltoes -31.0411
1618
root 9.83847 15.886 5.81704 24.2893 -6.07981 -3.06213
lowerback -17.8026 2.48165 3.60393
upperback -11.504 2.71969 -2.33895
thorax -2.12056 1.08367 -4.08324
lowerneck -28.5748 4.99882 9.11773
upperneck 19.3807 3.84701 -2.80099
head 11.2054 2.07423 -1.82444
rclavicle 2.29596e-014 2.62396e-014
rhumerus 56.8029 4.61591 -88.3905
rradius 82.4727
rwrist -41.0059
rhand -26.0548 -41.4402
rfingers 7.12502
rthumb 0.492849 -71.4194
lclavicle 2.29596e-014 2.62396e-014
lhumerus 63.871 -18.1206 72.295
lradius 75.8466
lwrist 55.9521
lhand -36.7911 -1.29972
lfingers 7.12502
lthumb -9.87311 28.4488
rfemur -43.2005 15.34 18.1667
rtibia 36.9801
rfoot -11.5051 -9.61577
rtoes -8.81204
lfemur -23.5414 -12.864 -16.0971
ltibia 18.7413
lfoot -13.4711 7.17675
ltoes -31.0306
1619
root 9.8447 15.8845 5.82124 24.2001 -5.99042 -3.09846
lowerback -17.8696 2.45265 3.53911
upperback -11.4401 2.68877 -2.28182
thorax -2.02358 1.07701 -3.98699
lowerneck -28.7251 5.00538 9.02503
upperneck 19.5902 3.88412 -2.8126
head 11.3112 2.08448 -1.8064
rclavicle 1.73937e-014 -1.35174e-014
rhumerus 57.6839 4.39327 -87.9681
rradius 82.4568
rwrist -41.1253
rhand -25.4997 -41.3534
rfingers 7.12502
rthumb 1.02892 -71.3306
lclavicle 1.73937e-014 -1.35174e-014
lhumerus 64.7255 -17.7932 71.9948
lradius 75.8251
lwrist 55.8114
lhand -36.5313 -1.64049
lfingers 7.12502
lthumb -9.62244 28.1198
rfemur -43.0393 15.3004 18.2322
rtibia 36.942
rfoot -11.5336 -9.65544
rtoes -8.89881
lfemur -23.5083 -12.8797 -16.0927
ltibia 18.8631
lfoot -13.5371 7.12922
ltoes -31.036
1620
root 9.85131 15.8828 5.82431 24.1113 -5.90287 -3.1326
lowerback -17.9289 2.42203 3.47462
upperback -11.3748 2.656 -2.22714
thorax -1.92892 1.06915 -3.89417
lowerneck -28.8902 5.0148 8.92606
upperneck 19.8145 3.92692 -2.82366
head 11.4258 2.09674 -1.78595
rclavicle -3.54831e-014 -4.77083e-015
rhumerus 58.5204 4.18506 -87.5622
rradius 82.5104
rwrist -41.2088
rhand -24.9924 -41.2082
rfingers 7.12502
rthumb 1.51894 -71.1826
lclavicle -3.54831e-014 -4.77083e-015
lhumerus 65.5248 -17.4656 71.7445
lradius 75.87
lwrist 55.6046
lhand -36.2269 -1.85107
lfingers 7.12502
lthumb -9.32873 27.9225
rfemur -42.8859 15.2592 18.2933
rtibia 36.9071
rfoot -11.5596 -9.69245
rtoes -8.99036
lfemur -23.4749 -12.8845 -16.0932
ltibia 18.9745
lfoot -13.5992 7.07256
ltoes -31.0575
1621
root 9.85835 15.8811 5.82621 24.0216 -5.8187 -3.1636
lowerback -17.9755 2.39105 3.41043
upperback -11.3158 2.6232 -2.17548
thorax -1.84755 1.06063 -3.8054
lowerneck -29.0413 5.02141 8.82009
upperneck 20.0437 3.97095 -2.83379
head 11.5401 2.10905 -1.76391
rclavicle -1.55052e-014 2.38542e-015
rhumerus 59.299 3.98763 -87.1698
rradius 82.6374
rwrist -41.2959
rhand -24.5242 -41.0684
rfingers 7.12502
rthumb 1.9711 -71.0391
lclavicle -1.55052e-014 2.38542e-015
lhumerus 66.2611 -17.1479 71.5376
lradius 75.9676
lwrist 55.3292
lhand -35.8873 -1.96527
lfingers 7.12502
lthumb -9.00104 27.8227
rfemur -42.7404 15.2173 18.3483
rtibia 36.8774
rfoot -11.5825 -9.72836
rtoes -9.08235
lfemur -23.4365 -12.8777 -16.1001
ltibia 19.0697
lfoot -13.6562 7.00345
ltoes -31.0742
1622
root 9.86583 15.8794 5.82716 23.9255 -5.7401 -3.19207
lowerback -18.0067 2.35971 3.34512
upperback -11.2566 2.59062 -2.12625
thorax -1.77377 1.05194 -3.71909
lowerneck -29.1921 5.02661 8.7139
upperneck 20.2744 4.01444 -2.84582
head 11.6554 2.12057 -1.7426
rclavicle 3.47873e-015 7.15625e-015
rhumerus 60.0324 3.79858 -86.7861
rradius 82.8293
rwrist -41.4108
rhand -24.1473 -40.7635
rfingers 7.12502
rthumb 2.33509 -70.7305
lclavicle 3.47873e-015 7.15625e-015
lhumerus 66.9544 -16.8422 71.356
lradius 76.1055
lwrist 55.0218
lhand -35.5481 -2.03746
lfingers 7.12502
lthumb -8.67369 27.7643
rfemur -42.5958 15.1759 18.3994
rtibia 36.8524
rfoot -11.6025 -9.76124
rtoes -9.1772
lfemur -23.3854 -12.8635 -16.1136
ltibia 19.1489
lfoot -13.7109 6.92348
ltoes -31.0605
1623
root 9.87347 15.878 5.82631 23.8411 -5.65575 -3.21299
lowerback -18.0296 2.32171 3.27073
upperback -11.204 2.55095 -2.07848
thorax -1.71204 1.03963 -3.63087
lowerneck -29.3313 5.02854 8.60628
upperneck 20.4913 4.05346 -2.84967
head 11.7632 2.13073 -1.71881
rclavicle 8.84592e-015 1.51076e-014
rhumerus 60.7238 3.61626 -86.4123
rradius 83.0787
rwrist -41.5725
rhand -23.8457 -40.3512
rfingers 7.12502
rthumb 2.62634 -70.3148
lclavicle 8.84592e-015 1.51076e-014
lhumerus 67.6155 -16.5421 71.1861
lradius 76.2643
lwrist 54.7178
lhand -35.2053 -2.13489
lfingers 7.12502
lthumb -8.3429 27.6804
rfemur -42.4757 15.1413 18.4338
rtibia 36.8326
rfoot -11.6118 -9.8106
rtoes -9.27373
lfemur -23.3494 -12.8231 -16.1334
ltibia 19.2126
lfoot -13.7639 6.80718
ltoes -31.0509
1624
root 9.88165 15.8765 5.82493 23.7442 -5.58113 -3.23286
lowerback -18.0382 2.28352 3.19604
upperback -11.1427 2.51155 -2.03158
thorax -1.64808 1.02752 -3.54363
lowerneck -29.4737 5.0254 8.48586
upperneck 20.6932 4.08468 -2.83084
head 11.8649 2.139 -1.68565
rclavicle 8.15017e-015 -5.56597e-015
rhumerus 61.3846 3.44031 -86.0497
rradius 83.3727
rwrist -41.7793
rhand -23.6147 -39.8671
rfingers 7.12502
rthumb 2.84942 -69.8278
lclavicle 8.15017e-015 -5.56597e-015
lhumerus 68.2566 -16.2431 71.0155
lradius 76.443
lwrist 54.4777
lhand -34.8877 -2.32938
lfingers 7.12502
lthumb -8.03636 27.4978
rfemur -42.3484 15.1142 18.4639
rtibia 36.8163
rfoot -11.6184 -9.85979
rtoes -9.36404
lfemur -23.293 -12.7878 -16.1596
ltibia 19.2643
lfoot -13.8123 6.6977
ltoes -31.0185
1625
root 9.89044 15.8749 5.82287 23.6386 -5.51421 -3.25087
lowerback -18.0362 2.24518 3.1227
upperback -11.0717 2.4721 -1.98729
thorax -1.57872 1.01538 -3.46008
lowerneck -29.6199 5.01565 8.35632
upperneck 20.8742 4.10433 -2.79036
head 11.958 2.14385 -1.64476
rclavicle -2.17669e-014 1.43125e-014
rhumerus 62.0185 3.26771 -85.708
rradius 83.7111
rwrist -42.0089
rhand -23.4049 -39.3048
rfingers 7.12502
rthumb 3.0521 -69.2627
lclavicle -2.17669e-014 1.43125e-014
lhumerus 68.8848 -15.9464 70.8345
lradius 76.6524
lwrist 54.3942
lhand -34.6236 -2.64868
lfingers 7.12502
lthumb -7.78151 27.1881
rfemur -42.2171 15.0889 18.4902
rtibia 36.8028
rfoot -11.6226 -9.9066
rtoes -9.46746
lfemur -23.2238 -12.7583 -16.1922
ltibia 19.308
lfoot -13.8549 6.59714
ltoes -30.9861
